ISO-10303-21;
HEADER;
/* Generated by software containing ST-Developer
 * from STEP Tools, Inc. (www.steptools.com) 
 */
/* OPTION: strings as raw bytes, not using required /X/ escapes */

FILE_DESCRIPTION(
/* description */ ('Unknown'),
/* implementation_level */ '2;1');

FILE_NAME(
/* name */ '33116x702513',
/* time_stamp */ '2016-02-16T11:20:34+01:00',
/* author */ ('Unknown'),
/* organization */ ('Unknown'),
/* preprocessor_version */ 'ST-DEVELOPER v16.7',
/* originating_system */ 'DEX',
/* authorisation */ $);

FILE_SCHEMA (('AUTOMOTIVE_DESIGN {1 0 10303 214 3 1 1}'));
ENDSEC;

DATA;
#10=PROPERTY_DEFINITION_REPRESENTATION(#14,#12);
#11=PROPERTY_DEFINITION_REPRESENTATION(#15,#13);
#12=REPRESENTATION('',(#16),#1277);
#13=REPRESENTATION('',(#17),#1277);
#14=PROPERTY_DEFINITION('pmi validation property','',#1282);
#15=PROPERTY_DEFINITION('pmi validation property','',#1282);
#16=VALUE_REPRESENTATION_ITEM('number of annotations',COUNT_MEASURE(0.));
#17=VALUE_REPRESENTATION_ITEM('number of views',COUNT_MEASURE(0.));
#18=SHAPE_REPRESENTATION_RELATIONSHIP('','',#767,#19);
#19=ADVANCED_BREP_SHAPE_REPRESENTATION('',(#765),#1277);
#20=CYLINDRICAL_SURFACE('',#777,0.500154386737689);
#21=CYLINDRICAL_SURFACE('',#781,1.92349727117869);
#22=CYLINDRICAL_SURFACE('',#785,2.00015518785285);
#23=CYLINDRICAL_SURFACE('',#789,0.5);
#24=CYLINDRICAL_SURFACE('',#793,0.500000000000001);
#25=CYLINDRICAL_SURFACE('',#796,0.499999999989977);
#26=CYLINDRICAL_SURFACE('',#800,0.50000000000172);
#27=CYLINDRICAL_SURFACE('',#806,0.35000000000172);
#28=CYLINDRICAL_SURFACE('',#810,0.349999999989977);
#29=CYLINDRICAL_SURFACE('',#813,0.350000000000001);
#30=CYLINDRICAL_SURFACE('',#817,0.35);
#31=CYLINDRICAL_SURFACE('',#821,2.15015518785285);
#32=CYLINDRICAL_SURFACE('',#825,1.77349727117868);
#33=CYLINDRICAL_SURFACE('',#829,0.350154386737689);
#34=CYLINDRICAL_SURFACE('',#835,0.3999999999925);
#35=CYLINDRICAL_SURFACE('',#837,0.3999999999925);
#36=CIRCLE('',#770,0.3999999999925);
#37=CIRCLE('',#771,0.3999999999925);
#38=CIRCLE('',#773,0.3999999999925);
#39=CIRCLE('',#774,0.3999999999925);
#40=CIRCLE('',#778,0.500154386737689);
#41=CIRCLE('',#779,0.500154386737689);
#42=CIRCLE('',#782,1.92349727117869);
#43=CIRCLE('',#783,1.92349727117869);
#44=CIRCLE('',#786,2.00015518785285);
#45=CIRCLE('',#787,2.00015518785285);
#46=CIRCLE('',#790,0.5);
#47=CIRCLE('',#791,0.5);
#48=CIRCLE('',#794,0.500000000000001);
#49=CIRCLE('',#795,0.500000000000001);
#50=CIRCLE('',#797,0.499999999989977);
#51=CIRCLE('',#798,0.499999999989977);
#52=CIRCLE('',#801,0.50000000000172);
#53=CIRCLE('',#802,0.50000000000172);
#54=CIRCLE('',#807,0.35000000000172);
#55=CIRCLE('',#808,0.35000000000172);
#56=CIRCLE('',#811,0.349999999989977);
#57=CIRCLE('',#812,0.349999999989977);
#58=CIRCLE('',#814,0.350000000000001);
#59=CIRCLE('',#815,0.350000000000001);
#60=CIRCLE('',#818,0.35);
#61=CIRCLE('',#819,0.35);
#62=CIRCLE('',#822,2.15015518785285);
#63=CIRCLE('',#823,2.15015518785285);
#64=CIRCLE('',#826,1.77349727117868);
#65=CIRCLE('',#827,1.77349727117868);
#66=CIRCLE('',#830,0.350154386737689);
#67=CIRCLE('',#831,0.350154386737689);
#68=ORIENTED_EDGE('',*,*,#284,.T.);
#69=ORIENTED_EDGE('',*,*,#285,.F.);
#70=ORIENTED_EDGE('',*,*,#286,.F.);
#71=ORIENTED_EDGE('',*,*,#287,.T.);
#72=ORIENTED_EDGE('',*,*,#288,.T.);
#73=ORIENTED_EDGE('',*,*,#289,.T.);
#74=ORIENTED_EDGE('',*,*,#290,.T.);
#75=ORIENTED_EDGE('',*,*,#291,.T.);
#76=ORIENTED_EDGE('',*,*,#292,.T.);
#77=ORIENTED_EDGE('',*,*,#293,.F.);
#78=ORIENTED_EDGE('',*,*,#294,.F.);
#79=ORIENTED_EDGE('',*,*,#295,.T.);
#80=ORIENTED_EDGE('',*,*,#296,.F.);
#81=ORIENTED_EDGE('',*,*,#297,.F.);
#82=ORIENTED_EDGE('',*,*,#298,.F.);
#83=ORIENTED_EDGE('',*,*,#299,.F.);
#84=ORIENTED_EDGE('',*,*,#300,.T.);
#85=ORIENTED_EDGE('',*,*,#301,.F.);
#86=ORIENTED_EDGE('',*,*,#302,.F.);
#87=ORIENTED_EDGE('',*,*,#303,.T.);
#88=ORIENTED_EDGE('',*,*,#304,.T.);
#89=ORIENTED_EDGE('',*,*,#305,.F.);
#90=ORIENTED_EDGE('',*,*,#306,.F.);
#91=ORIENTED_EDGE('',*,*,#301,.T.);
#92=ORIENTED_EDGE('',*,*,#307,.T.);
#93=ORIENTED_EDGE('',*,*,#308,.F.);
#94=ORIENTED_EDGE('',*,*,#309,.F.);
#95=ORIENTED_EDGE('',*,*,#305,.T.);
#96=ORIENTED_EDGE('',*,*,#310,.T.);
#97=ORIENTED_EDGE('',*,*,#311,.F.);
#98=ORIENTED_EDGE('',*,*,#312,.F.);
#99=ORIENTED_EDGE('',*,*,#308,.T.);
#100=ORIENTED_EDGE('',*,*,#313,.T.);
#101=ORIENTED_EDGE('',*,*,#314,.F.);
#102=ORIENTED_EDGE('',*,*,#315,.F.);
#103=ORIENTED_EDGE('',*,*,#311,.T.);
#104=ORIENTED_EDGE('',*,*,#316,.T.);
#105=ORIENTED_EDGE('',*,*,#317,.F.);
#106=ORIENTED_EDGE('',*,*,#318,.F.);
#107=ORIENTED_EDGE('',*,*,#314,.T.);
#108=ORIENTED_EDGE('',*,*,#317,.T.);
#109=ORIENTED_EDGE('',*,*,#319,.T.);
#110=ORIENTED_EDGE('',*,*,#320,.F.);
#111=ORIENTED_EDGE('',*,*,#321,.F.);
#112=ORIENTED_EDGE('',*,*,#322,.T.);
#113=ORIENTED_EDGE('',*,*,#323,.F.);
#114=ORIENTED_EDGE('',*,*,#324,.F.);
#115=ORIENTED_EDGE('',*,*,#320,.T.);
#116=ORIENTED_EDGE('',*,*,#325,.T.);
#117=ORIENTED_EDGE('',*,*,#326,.F.);
#118=ORIENTED_EDGE('',*,*,#327,.F.);
#119=ORIENTED_EDGE('',*,*,#323,.T.);
#120=ORIENTED_EDGE('',*,*,#328,.T.);
#121=ORIENTED_EDGE('',*,*,#329,.F.);
#122=ORIENTED_EDGE('',*,*,#330,.F.);
#123=ORIENTED_EDGE('',*,*,#326,.T.);
#124=ORIENTED_EDGE('',*,*,#331,.T.);
#125=ORIENTED_EDGE('',*,*,#287,.F.);
#126=ORIENTED_EDGE('',*,*,#332,.F.);
#127=ORIENTED_EDGE('',*,*,#329,.T.);
#128=ORIENTED_EDGE('',*,*,#333,.T.);
#129=ORIENTED_EDGE('',*,*,#334,.F.);
#130=ORIENTED_EDGE('',*,*,#335,.F.);
#131=ORIENTED_EDGE('',*,*,#285,.T.);
#132=ORIENTED_EDGE('',*,*,#336,.T.);
#133=ORIENTED_EDGE('',*,*,#337,.F.);
#134=ORIENTED_EDGE('',*,*,#338,.F.);
#135=ORIENTED_EDGE('',*,*,#334,.T.);
#136=ORIENTED_EDGE('',*,*,#339,.T.);
#137=ORIENTED_EDGE('',*,*,#340,.F.);
#138=ORIENTED_EDGE('',*,*,#341,.F.);
#139=ORIENTED_EDGE('',*,*,#337,.T.);
#140=ORIENTED_EDGE('',*,*,#342,.T.);
#141=ORIENTED_EDGE('',*,*,#343,.F.);
#142=ORIENTED_EDGE('',*,*,#344,.F.);
#143=ORIENTED_EDGE('',*,*,#340,.T.);
#144=ORIENTED_EDGE('',*,*,#343,.T.);
#145=ORIENTED_EDGE('',*,*,#345,.T.);
#146=ORIENTED_EDGE('',*,*,#346,.F.);
#147=ORIENTED_EDGE('',*,*,#347,.F.);
#148=ORIENTED_EDGE('',*,*,#346,.T.);
#149=ORIENTED_EDGE('',*,*,#348,.T.);
#150=ORIENTED_EDGE('',*,*,#349,.F.);
#151=ORIENTED_EDGE('',*,*,#350,.F.);
#152=ORIENTED_EDGE('',*,*,#351,.T.);
#153=ORIENTED_EDGE('',*,*,#352,.F.);
#154=ORIENTED_EDGE('',*,*,#353,.F.);
#155=ORIENTED_EDGE('',*,*,#349,.T.);
#156=ORIENTED_EDGE('',*,*,#354,.T.);
#157=ORIENTED_EDGE('',*,*,#355,.F.);
#158=ORIENTED_EDGE('',*,*,#356,.F.);
#159=ORIENTED_EDGE('',*,*,#352,.T.);
#160=ORIENTED_EDGE('',*,*,#357,.T.);
#161=ORIENTED_EDGE('',*,*,#295,.F.);
#162=ORIENTED_EDGE('',*,*,#358,.F.);
#163=ORIENTED_EDGE('',*,*,#355,.T.);
#164=ORIENTED_EDGE('',*,*,#359,.T.);
#165=ORIENTED_EDGE('',*,*,#360,.F.);
#166=ORIENTED_EDGE('',*,*,#361,.F.);
#167=ORIENTED_EDGE('',*,*,#293,.T.);
#168=ORIENTED_EDGE('',*,*,#362,.T.);
#169=ORIENTED_EDGE('',*,*,#363,.F.);
#170=ORIENTED_EDGE('',*,*,#364,.F.);
#171=ORIENTED_EDGE('',*,*,#360,.T.);
#172=ORIENTED_EDGE('',*,*,#365,.T.);
#173=ORIENTED_EDGE('',*,*,#366,.F.);
#174=ORIENTED_EDGE('',*,*,#367,.F.);
#175=ORIENTED_EDGE('',*,*,#363,.T.);
#176=ORIENTED_EDGE('',*,*,#368,.T.);
#177=ORIENTED_EDGE('',*,*,#369,.F.);
#178=ORIENTED_EDGE('',*,*,#370,.F.);
#179=ORIENTED_EDGE('',*,*,#366,.T.);
#180=ORIENTED_EDGE('',*,*,#371,.T.);
#181=ORIENTED_EDGE('',*,*,#372,.F.);
#182=ORIENTED_EDGE('',*,*,#373,.F.);
#183=ORIENTED_EDGE('',*,*,#369,.T.);
#184=ORIENTED_EDGE('',*,*,#372,.T.);
#185=ORIENTED_EDGE('',*,*,#374,.T.);
#186=ORIENTED_EDGE('',*,*,#375,.F.);
#187=ORIENTED_EDGE('',*,*,#376,.F.);
#188=ORIENTED_EDGE('',*,*,#377,.T.);
#189=ORIENTED_EDGE('',*,*,#378,.F.);
#190=ORIENTED_EDGE('',*,*,#379,.F.);
#191=ORIENTED_EDGE('',*,*,#375,.T.);
#192=ORIENTED_EDGE('',*,*,#380,.T.);
#193=ORIENTED_EDGE('',*,*,#381,.F.);
#194=ORIENTED_EDGE('',*,*,#382,.F.);
#195=ORIENTED_EDGE('',*,*,#378,.T.);
#196=ORIENTED_EDGE('',*,*,#383,.T.);
#197=ORIENTED_EDGE('',*,*,#384,.F.);
#198=ORIENTED_EDGE('',*,*,#385,.F.);
#199=ORIENTED_EDGE('',*,*,#381,.T.);
#200=ORIENTED_EDGE('',*,*,#386,.T.);
#201=ORIENTED_EDGE('',*,*,#303,.F.);
#202=ORIENTED_EDGE('',*,*,#387,.F.);
#203=ORIENTED_EDGE('',*,*,#384,.T.);
#204=ORIENTED_EDGE('',*,*,#302,.T.);
#205=ORIENTED_EDGE('',*,*,#306,.T.);
#206=ORIENTED_EDGE('',*,*,#309,.T.);
#207=ORIENTED_EDGE('',*,*,#312,.T.);
#208=ORIENTED_EDGE('',*,*,#315,.T.);
#209=ORIENTED_EDGE('',*,*,#318,.T.);
#210=ORIENTED_EDGE('',*,*,#321,.T.);
#211=ORIENTED_EDGE('',*,*,#324,.T.);
#212=ORIENTED_EDGE('',*,*,#327,.T.);
#213=ORIENTED_EDGE('',*,*,#330,.T.);
#214=ORIENTED_EDGE('',*,*,#332,.T.);
#215=ORIENTED_EDGE('',*,*,#286,.T.);
#216=ORIENTED_EDGE('',*,*,#335,.T.);
#217=ORIENTED_EDGE('',*,*,#338,.T.);
#218=ORIENTED_EDGE('',*,*,#341,.T.);
#219=ORIENTED_EDGE('',*,*,#344,.T.);
#220=ORIENTED_EDGE('',*,*,#347,.T.);
#221=ORIENTED_EDGE('',*,*,#350,.T.);
#222=ORIENTED_EDGE('',*,*,#353,.T.);
#223=ORIENTED_EDGE('',*,*,#356,.T.);
#224=ORIENTED_EDGE('',*,*,#358,.T.);
#225=ORIENTED_EDGE('',*,*,#294,.T.);
#226=ORIENTED_EDGE('',*,*,#361,.T.);
#227=ORIENTED_EDGE('',*,*,#364,.T.);
#228=ORIENTED_EDGE('',*,*,#367,.T.);
#229=ORIENTED_EDGE('',*,*,#370,.T.);
#230=ORIENTED_EDGE('',*,*,#373,.T.);
#231=ORIENTED_EDGE('',*,*,#376,.T.);
#232=ORIENTED_EDGE('',*,*,#379,.T.);
#233=ORIENTED_EDGE('',*,*,#382,.T.);
#234=ORIENTED_EDGE('',*,*,#385,.T.);
#235=ORIENTED_EDGE('',*,*,#387,.T.);
#236=ORIENTED_EDGE('',*,*,#300,.F.);
#237=ORIENTED_EDGE('',*,*,#386,.F.);
#238=ORIENTED_EDGE('',*,*,#383,.F.);
#239=ORIENTED_EDGE('',*,*,#380,.F.);
#240=ORIENTED_EDGE('',*,*,#377,.F.);
#241=ORIENTED_EDGE('',*,*,#374,.F.);
#242=ORIENTED_EDGE('',*,*,#371,.F.);
#243=ORIENTED_EDGE('',*,*,#368,.F.);
#244=ORIENTED_EDGE('',*,*,#365,.F.);
#245=ORIENTED_EDGE('',*,*,#362,.F.);
#246=ORIENTED_EDGE('',*,*,#359,.F.);
#247=ORIENTED_EDGE('',*,*,#292,.F.);
#248=ORIENTED_EDGE('',*,*,#357,.F.);
#249=ORIENTED_EDGE('',*,*,#354,.F.);
#250=ORIENTED_EDGE('',*,*,#351,.F.);
#251=ORIENTED_EDGE('',*,*,#348,.F.);
#252=ORIENTED_EDGE('',*,*,#345,.F.);
#253=ORIENTED_EDGE('',*,*,#342,.F.);
#254=ORIENTED_EDGE('',*,*,#339,.F.);
#255=ORIENTED_EDGE('',*,*,#336,.F.);
#256=ORIENTED_EDGE('',*,*,#333,.F.);
#257=ORIENTED_EDGE('',*,*,#284,.F.);
#258=ORIENTED_EDGE('',*,*,#331,.F.);
#259=ORIENTED_EDGE('',*,*,#328,.F.);
#260=ORIENTED_EDGE('',*,*,#325,.F.);
#261=ORIENTED_EDGE('',*,*,#322,.F.);
#262=ORIENTED_EDGE('',*,*,#319,.F.);
#263=ORIENTED_EDGE('',*,*,#316,.F.);
#264=ORIENTED_EDGE('',*,*,#313,.F.);
#265=ORIENTED_EDGE('',*,*,#310,.F.);
#266=ORIENTED_EDGE('',*,*,#307,.F.);
#267=ORIENTED_EDGE('',*,*,#304,.F.);
#268=ORIENTED_EDGE('',*,*,#296,.T.);
#269=ORIENTED_EDGE('',*,*,#388,.T.);
#270=ORIENTED_EDGE('',*,*,#288,.F.);
#271=ORIENTED_EDGE('',*,*,#389,.F.);
#272=ORIENTED_EDGE('',*,*,#299,.T.);
#273=ORIENTED_EDGE('',*,*,#390,.T.);
#274=ORIENTED_EDGE('',*,*,#289,.F.);
#275=ORIENTED_EDGE('',*,*,#388,.F.);
#276=ORIENTED_EDGE('',*,*,#298,.T.);
#277=ORIENTED_EDGE('',*,*,#391,.T.);
#278=ORIENTED_EDGE('',*,*,#290,.F.);
#279=ORIENTED_EDGE('',*,*,#390,.F.);
#280=ORIENTED_EDGE('',*,*,#297,.T.);
#281=ORIENTED_EDGE('',*,*,#389,.T.);
#282=ORIENTED_EDGE('',*,*,#291,.F.);
#283=ORIENTED_EDGE('',*,*,#391,.F.);
#284=EDGE_CURVE('',#392,#393,#464,.T.);
#285=EDGE_CURVE('',#394,#393,#465,.T.);
#286=EDGE_CURVE('',#395,#394,#466,.T.);
#287=EDGE_CURVE('',#395,#392,#467,.T.);
#288=EDGE_CURVE('',#396,#397,#36,.T.);
#289=EDGE_CURVE('',#397,#398,#468,.T.);
#290=EDGE_CURVE('',#398,#399,#37,.T.);
#291=EDGE_CURVE('',#399,#396,#469,.T.);
#292=EDGE_CURVE('',#400,#401,#470,.T.);
#293=EDGE_CURVE('',#402,#401,#471,.T.);
#294=EDGE_CURVE('',#403,#402,#472,.T.);
#295=EDGE_CURVE('',#403,#400,#473,.T.);
#296=EDGE_CURVE('',#404,#405,#38,.F.);
#297=EDGE_CURVE('',#406,#404,#474,.T.);
#298=EDGE_CURVE('',#407,#406,#39,.F.);
#299=EDGE_CURVE('',#405,#407,#475,.T.);
#300=EDGE_CURVE('',#408,#409,#476,.T.);
#301=EDGE_CURVE('',#410,#409,#477,.T.);
#302=EDGE_CURVE('',#411,#410,#478,.T.);
#303=EDGE_CURVE('',#411,#408,#479,.T.);
#304=EDGE_CURVE('',#409,#412,#480,.T.);
#305=EDGE_CURVE('',#413,#412,#481,.T.);
#306=EDGE_CURVE('',#410,#413,#482,.T.);
#307=EDGE_CURVE('',#412,#414,#40,.T.);
#308=EDGE_CURVE('',#415,#414,#483,.T.);
#309=EDGE_CURVE('',#413,#415,#41,.T.);
#310=EDGE_CURVE('',#414,#416,#484,.T.);
#311=EDGE_CURVE('',#417,#416,#485,.T.);
#312=EDGE_CURVE('',#415,#417,#486,.T.);
#313=EDGE_CURVE('',#416,#418,#42,.T.);
#314=EDGE_CURVE('',#419,#418,#487,.T.);
#315=EDGE_CURVE('',#417,#419,#43,.T.);
#316=EDGE_CURVE('',#418,#420,#488,.T.);
#317=EDGE_CURVE('',#421,#420,#489,.T.);
#318=EDGE_CURVE('',#419,#421,#490,.T.);
#319=EDGE_CURVE('',#420,#422,#44,.T.);
#320=EDGE_CURVE('',#423,#422,#491,.T.);
#321=EDGE_CURVE('',#421,#423,#45,.T.);
#322=EDGE_CURVE('',#422,#424,#492,.T.);
#323=EDGE_CURVE('',#425,#424,#493,.T.);
#324=EDGE_CURVE('',#423,#425,#494,.T.);
#325=EDGE_CURVE('',#424,#426,#46,.T.);
#326=EDGE_CURVE('',#427,#426,#495,.T.);
#327=EDGE_CURVE('',#425,#427,#47,.T.);
#328=EDGE_CURVE('',#426,#428,#496,.T.);
#329=EDGE_CURVE('',#429,#428,#497,.T.);
#330=EDGE_CURVE('',#427,#429,#498,.T.);
#331=EDGE_CURVE('',#428,#392,#48,.T.);
#332=EDGE_CURVE('',#429,#395,#49,.T.);
#333=EDGE_CURVE('',#393,#430,#50,.T.);
#334=EDGE_CURVE('',#431,#430,#499,.T.);
#335=EDGE_CURVE('',#394,#431,#51,.T.);
#336=EDGE_CURVE('',#430,#432,#500,.T.);
#337=EDGE_CURVE('',#433,#432,#501,.T.);
#338=EDGE_CURVE('',#431,#433,#502,.T.);
#339=EDGE_CURVE('',#432,#434,#52,.T.);
#340=EDGE_CURVE('',#435,#434,#503,.T.);
#341=EDGE_CURVE('',#433,#435,#53,.T.);
#342=EDGE_CURVE('',#434,#436,#504,.T.);
#343=EDGE_CURVE('',#437,#436,#505,.T.);
#344=EDGE_CURVE('',#435,#437,#506,.T.);
#345=EDGE_CURVE('',#436,#438,#507,.T.);
#346=EDGE_CURVE('',#439,#438,#508,.T.);
#347=EDGE_CURVE('',#437,#439,#509,.T.);
#348=EDGE_CURVE('',#438,#440,#510,.T.);
#349=EDGE_CURVE('',#441,#440,#511,.T.);
#350=EDGE_CURVE('',#439,#441,#512,.T.);
#351=EDGE_CURVE('',#440,#442,#54,.T.);
#352=EDGE_CURVE('',#443,#442,#513,.T.);
#353=EDGE_CURVE('',#441,#443,#55,.T.);
#354=EDGE_CURVE('',#442,#444,#514,.T.);
#355=EDGE_CURVE('',#445,#444,#515,.T.);
#356=EDGE_CURVE('',#443,#445,#516,.T.);
#357=EDGE_CURVE('',#444,#400,#56,.T.);
#358=EDGE_CURVE('',#445,#403,#57,.T.);
#359=EDGE_CURVE('',#401,#446,#58,.T.);
#360=EDGE_CURVE('',#447,#446,#517,.T.);
#361=EDGE_CURVE('',#402,#447,#59,.T.);
#362=EDGE_CURVE('',#446,#448,#518,.T.);
#363=EDGE_CURVE('',#449,#448,#519,.T.);
#364=EDGE_CURVE('',#447,#449,#520,.T.);
#365=EDGE_CURVE('',#448,#450,#60,.T.);
#366=EDGE_CURVE('',#451,#450,#521,.T.);
#367=EDGE_CURVE('',#449,#451,#61,.T.);
#368=EDGE_CURVE('',#450,#452,#522,.T.);
#369=EDGE_CURVE('',#453,#452,#523,.T.);
#370=EDGE_CURVE('',#451,#453,#524,.T.);
#371=EDGE_CURVE('',#452,#454,#62,.T.);
#372=EDGE_CURVE('',#455,#454,#525,.T.);
#373=EDGE_CURVE('',#453,#455,#63,.T.);
#374=EDGE_CURVE('',#454,#456,#526,.T.);
#375=EDGE_CURVE('',#457,#456,#527,.T.);
#376=EDGE_CURVE('',#455,#457,#528,.T.);
#377=EDGE_CURVE('',#456,#458,#64,.T.);
#378=EDGE_CURVE('',#459,#458,#529,.T.);
#379=EDGE_CURVE('',#457,#459,#65,.T.);
#380=EDGE_CURVE('',#458,#460,#530,.T.);
#381=EDGE_CURVE('',#461,#460,#531,.T.);
#382=EDGE_CURVE('',#459,#461,#532,.T.);
#383=EDGE_CURVE('',#460,#462,#66,.T.);
#384=EDGE_CURVE('',#463,#462,#533,.T.);
#385=EDGE_CURVE('',#461,#463,#67,.T.);
#386=EDGE_CURVE('',#462,#408,#534,.T.);
#387=EDGE_CURVE('',#463,#411,#535,.T.);
#388=EDGE_CURVE('',#405,#397,#536,.T.);
#389=EDGE_CURVE('',#404,#396,#537,.T.);
#390=EDGE_CURVE('',#407,#398,#538,.T.);
#391=EDGE_CURVE('',#406,#399,#539,.T.);
#392=VERTEX_POINT('',#1060);
#393=VERTEX_POINT('',#1061);
#394=VERTEX_POINT('',#1063);
#395=VERTEX_POINT('',#1065);
#396=VERTEX_POINT('',#1068);
#397=VERTEX_POINT('',#1069);
#398=VERTEX_POINT('',#1071);
#399=VERTEX_POINT('',#1073);
#400=VERTEX_POINT('',#1077);
#401=VERTEX_POINT('',#1078);
#402=VERTEX_POINT('',#1080);
#403=VERTEX_POINT('',#1082);
#404=VERTEX_POINT('',#1085);
#405=VERTEX_POINT('',#1086);
#406=VERTEX_POINT('',#1088);
#407=VERTEX_POINT('',#1090);
#408=VERTEX_POINT('',#1094);
#409=VERTEX_POINT('',#1095);
#410=VERTEX_POINT('',#1097);
#411=VERTEX_POINT('',#1099);
#412=VERTEX_POINT('',#1103);
#413=VERTEX_POINT('',#1105);
#414=VERTEX_POINT('',#1109);
#415=VERTEX_POINT('',#1111);
#416=VERTEX_POINT('',#1115);
#417=VERTEX_POINT('',#1117);
#418=VERTEX_POINT('',#1121);
#419=VERTEX_POINT('',#1123);
#420=VERTEX_POINT('',#1127);
#421=VERTEX_POINT('',#1129);
#422=VERTEX_POINT('',#1133);
#423=VERTEX_POINT('',#1135);
#424=VERTEX_POINT('',#1139);
#425=VERTEX_POINT('',#1141);
#426=VERTEX_POINT('',#1145);
#427=VERTEX_POINT('',#1147);
#428=VERTEX_POINT('',#1151);
#429=VERTEX_POINT('',#1153);
#430=VERTEX_POINT('',#1160);
#431=VERTEX_POINT('',#1162);
#432=VERTEX_POINT('',#1166);
#433=VERTEX_POINT('',#1168);
#434=VERTEX_POINT('',#1172);
#435=VERTEX_POINT('',#1174);
#436=VERTEX_POINT('',#1178);
#437=VERTEX_POINT('',#1180);
#438=VERTEX_POINT('',#1184);
#439=VERTEX_POINT('',#1186);
#440=VERTEX_POINT('',#1190);
#441=VERTEX_POINT('',#1192);
#442=VERTEX_POINT('',#1196);
#443=VERTEX_POINT('',#1198);
#444=VERTEX_POINT('',#1202);
#445=VERTEX_POINT('',#1204);
#446=VERTEX_POINT('',#1211);
#447=VERTEX_POINT('',#1213);
#448=VERTEX_POINT('',#1217);
#449=VERTEX_POINT('',#1219);
#450=VERTEX_POINT('',#1223);
#451=VERTEX_POINT('',#1225);
#452=VERTEX_POINT('',#1229);
#453=VERTEX_POINT('',#1231);
#454=VERTEX_POINT('',#1235);
#455=VERTEX_POINT('',#1237);
#456=VERTEX_POINT('',#1241);
#457=VERTEX_POINT('',#1243);
#458=VERTEX_POINT('',#1247);
#459=VERTEX_POINT('',#1249);
#460=VERTEX_POINT('',#1253);
#461=VERTEX_POINT('',#1255);
#462=VERTEX_POINT('',#1259);
#463=VERTEX_POINT('',#1261);
#464=LINE('',#1059,#540);
#465=LINE('',#1062,#541);
#466=LINE('',#1064,#542);
#467=LINE('',#1066,#543);
#468=LINE('',#1070,#544);
#469=LINE('',#1074,#545);
#470=LINE('',#1076,#546);
#471=LINE('',#1079,#547);
#472=LINE('',#1081,#548);
#473=LINE('',#1083,#549);
#474=LINE('',#1087,#550);
#475=LINE('',#1091,#551);
#476=LINE('',#1093,#552);
#477=LINE('',#1096,#553);
#478=LINE('',#1098,#554);
#479=LINE('',#1100,#555);
#480=LINE('',#1102,#556);
#481=LINE('',#1104,#557);
#482=LINE('',#1106,#558);
#483=LINE('',#1110,#559);
#484=LINE('',#1114,#560);
#485=LINE('',#1116,#561);
#486=LINE('',#1118,#562);
#487=LINE('',#1122,#563);
#488=LINE('',#1126,#564);
#489=LINE('',#1128,#565);
#490=LINE('',#1130,#566);
#491=LINE('',#1134,#567);
#492=LINE('',#1138,#568);
#493=LINE('',#1140,#569);
#494=LINE('',#1142,#570);
#495=LINE('',#1146,#571);
#496=LINE('',#1150,#572);
#497=LINE('',#1152,#573);
#498=LINE('',#1154,#574);
#499=LINE('',#1161,#575);
#500=LINE('',#1165,#576);
#501=LINE('',#1167,#577);
#502=LINE('',#1169,#578);
#503=LINE('',#1173,#579);
#504=LINE('',#1177,#580);
#505=LINE('',#1179,#581);
#506=LINE('',#1181,#582);
#507=LINE('',#1183,#583);
#508=LINE('',#1185,#584);
#509=LINE('',#1187,#585);
#510=LINE('',#1189,#586);
#511=LINE('',#1191,#587);
#512=LINE('',#1193,#588);
#513=LINE('',#1197,#589);
#514=LINE('',#1201,#590);
#515=LINE('',#1203,#591);
#516=LINE('',#1205,#592);
#517=LINE('',#1212,#593);
#518=LINE('',#1216,#594);
#519=LINE('',#1218,#595);
#520=LINE('',#1220,#596);
#521=LINE('',#1224,#597);
#522=LINE('',#1228,#598);
#523=LINE('',#1230,#599);
#524=LINE('',#1232,#600);
#525=LINE('',#1236,#601);
#526=LINE('',#1240,#602);
#527=LINE('',#1242,#603);
#528=LINE('',#1244,#604);
#529=LINE('',#1248,#605);
#530=LINE('',#1252,#606);
#531=LINE('',#1254,#607);
#532=LINE('',#1256,#608);
#533=LINE('',#1260,#609);
#534=LINE('',#1264,#610);
#535=LINE('',#1265,#611);
#536=LINE('',#1269,#612);
#537=LINE('',#1270,#613);
#538=LINE('',#1272,#614);
#539=LINE('',#1274,#615);
#540=VECTOR('',#843,1000.);
#541=VECTOR('',#844,1000.);
#542=VECTOR('',#845,1000.);
#543=VECTOR('',#846,1000.);
#544=VECTOR('',#849,1000.);
#545=VECTOR('',#852,1000.);
#546=VECTOR('',#855,1000.);
#547=VECTOR('',#856,1000.);
#548=VECTOR('',#857,1000.);
#549=VECTOR('',#858,1000.);
#550=VECTOR('',#861,1000.);
#551=VECTOR('',#864,1000.);
#552=VECTOR('',#867,1000.);
#553=VECTOR('',#868,1000.);
#554=VECTOR('',#869,1000.);
#555=VECTOR('',#870,1000.);
#556=VECTOR('',#873,1000.);
#557=VECTOR('',#874,1000.);
#558=VECTOR('',#875,1000.);
#559=VECTOR('',#880,1000.);
#560=VECTOR('',#885,1000.);
#561=VECTOR('',#886,1000.);
#562=VECTOR('',#887,1000.);
#563=VECTOR('',#892,1000.);
#564=VECTOR('',#897,1000.);
#565=VECTOR('',#898,1000.);
#566=VECTOR('',#899,1000.);
#567=VECTOR('',#904,1000.);
#568=VECTOR('',#909,1000.);
#569=VECTOR('',#910,1000.);
#570=VECTOR('',#911,1000.);
#571=VECTOR('',#916,1000.);
#572=VECTOR('',#921,1000.);
#573=VECTOR('',#922,1000.);
#574=VECTOR('',#923,1000.);
#575=VECTOR('',#934,1000.);
#576=VECTOR('',#939,1000.);
#577=VECTOR('',#940,1000.);
#578=VECTOR('',#941,1000.);
#579=VECTOR('',#946,1000.);
#580=VECTOR('',#951,1000.);
#581=VECTOR('',#952,1000.);
#582=VECTOR('',#953,1000.);
#583=VECTOR('',#956,1000.);
#584=VECTOR('',#957,1000.);
#585=VECTOR('',#958,1000.);
#586=VECTOR('',#961,1000.);
#587=VECTOR('',#962,1000.);
#588=VECTOR('',#963,1000.);
#589=VECTOR('',#968,1000.);
#590=VECTOR('',#973,1000.);
#591=VECTOR('',#974,1000.);
#592=VECTOR('',#975,1000.);
#593=VECTOR('',#986,1000.);
#594=VECTOR('',#991,1000.);
#595=VECTOR('',#992,1000.);
#596=VECTOR('',#993,1000.);
#597=VECTOR('',#998,1000.);
#598=VECTOR('',#1003,1000.);
#599=VECTOR('',#1004,1000.);
#600=VECTOR('',#1005,1000.);
#601=VECTOR('',#1010,1000.);
#602=VECTOR('',#1015,1000.);
#603=VECTOR('',#1016,1000.);
#604=VECTOR('',#1017,1000.);
#605=VECTOR('',#1022,1000.);
#606=VECTOR('',#1027,1000.);
#607=VECTOR('',#1028,1000.);
#608=VECTOR('',#1029,1000.);
#609=VECTOR('',#1034,1000.);
#610=VECTOR('',#1039,1000.);
#611=VECTOR('',#1040,1000.);
#612=VECTOR('',#1047,1000.);
#613=VECTOR('',#1048,1000.);
#614=VECTOR('',#1051,1000.);
#615=VECTOR('',#1054,1000.);
#616=EDGE_LOOP('',(#68,#69,#70,#71));
#617=EDGE_LOOP('',(#72,#73,#74,#75));
#618=EDGE_LOOP('',(#76,#77,#78,#79));
#619=EDGE_LOOP('',(#80,#81,#82,#83));
#620=EDGE_LOOP('',(#84,#85,#86,#87));
#621=EDGE_LOOP('',(#88,#89,#90,#91));
#622=EDGE_LOOP('',(#92,#93,#94,#95));
#623=EDGE_LOOP('',(#96,#97,#98,#99));
#624=EDGE_LOOP('',(#100,#101,#102,#103));
#625=EDGE_LOOP('',(#104,#105,#106,#107));
#626=EDGE_LOOP('',(#108,#109,#110,#111));
#627=EDGE_LOOP('',(#112,#113,#114,#115));
#628=EDGE_LOOP('',(#116,#117,#118,#119));
#629=EDGE_LOOP('',(#120,#121,#122,#123));
#630=EDGE_LOOP('',(#124,#125,#126,#127));
#631=EDGE_LOOP('',(#128,#129,#130,#131));
#632=EDGE_LOOP('',(#132,#133,#134,#135));
#633=EDGE_LOOP('',(#136,#137,#138,#139));
#634=EDGE_LOOP('',(#140,#141,#142,#143));
#635=EDGE_LOOP('',(#144,#145,#146,#147));
#636=EDGE_LOOP('',(#148,#149,#150,#151));
#637=EDGE_LOOP('',(#152,#153,#154,#155));
#638=EDGE_LOOP('',(#156,#157,#158,#159));
#639=EDGE_LOOP('',(#160,#161,#162,#163));
#640=EDGE_LOOP('',(#164,#165,#166,#167));
#641=EDGE_LOOP('',(#168,#169,#170,#171));
#642=EDGE_LOOP('',(#172,#173,#174,#175));
#643=EDGE_LOOP('',(#176,#177,#178,#179));
#644=EDGE_LOOP('',(#180,#181,#182,#183));
#645=EDGE_LOOP('',(#184,#185,#186,#187));
#646=EDGE_LOOP('',(#188,#189,#190,#191));
#647=EDGE_LOOP('',(#192,#193,#194,#195));
#648=EDGE_LOOP('',(#196,#197,#198,#199));
#649=EDGE_LOOP('',(#200,#201,#202,#203));
#650=EDGE_LOOP('',(#204,#205,#206,#207,#208,#209,#210,#211,#212,#213,#214,
#215,#216,#217,#218,#219,#220,#221,#222,#223,#224,#225,#226,#227,#228,#229,
#230,#231,#232,#233,#234,#235));
#651=EDGE_LOOP('',(#236,#237,#238,#239,#240,#241,#242,#243,#244,#245,#246,
#247,#248,#249,#250,#251,#252,#253,#254,#255,#256,#257,#258,#259,#260,#261,
#262,#263,#264,#265,#266,#267));
#652=EDGE_LOOP('',(#268,#269,#270,#271));
#653=EDGE_LOOP('',(#272,#273,#274,#275));
#654=EDGE_LOOP('',(#276,#277,#278,#279));
#655=EDGE_LOOP('',(#280,#281,#282,#283));
#656=FACE_BOUND('',#616,.T.);
#657=FACE_BOUND('',#617,.T.);
#658=FACE_BOUND('',#618,.T.);
#659=FACE_BOUND('',#619,.T.);
#660=FACE_BOUND('',#620,.T.);
#661=FACE_BOUND('',#621,.T.);
#662=FACE_BOUND('',#622,.T.);
#663=FACE_BOUND('',#623,.T.);
#664=FACE_BOUND('',#624,.T.);
#665=FACE_BOUND('',#625,.T.);
#666=FACE_BOUND('',#626,.T.);
#667=FACE_BOUND('',#627,.T.);
#668=FACE_BOUND('',#628,.T.);
#669=FACE_BOUND('',#629,.T.);
#670=FACE_BOUND('',#630,.T.);
#671=FACE_BOUND('',#631,.T.);
#672=FACE_BOUND('',#632,.T.);
#673=FACE_BOUND('',#633,.T.);
#674=FACE_BOUND('',#634,.T.);
#675=FACE_BOUND('',#635,.T.);
#676=FACE_BOUND('',#636,.T.);
#677=FACE_BOUND('',#637,.T.);
#678=FACE_BOUND('',#638,.T.);
#679=FACE_BOUND('',#639,.T.);
#680=FACE_BOUND('',#640,.T.);
#681=FACE_BOUND('',#641,.T.);
#682=FACE_BOUND('',#642,.T.);
#683=FACE_BOUND('',#643,.T.);
#684=FACE_BOUND('',#644,.T.);
#685=FACE_BOUND('',#645,.T.);
#686=FACE_BOUND('',#646,.T.);
#687=FACE_BOUND('',#647,.T.);
#688=FACE_BOUND('',#648,.T.);
#689=FACE_BOUND('',#649,.T.);
#690=FACE_BOUND('',#650,.T.);
#691=FACE_BOUND('',#651,.T.);
#692=FACE_BOUND('',#652,.T.);
#693=FACE_BOUND('',#653,.T.);
#694=FACE_BOUND('',#654,.T.);
#695=FACE_BOUND('',#655,.T.);
#696=PLANE('',#769);
#697=PLANE('',#772);
#698=PLANE('',#775);
#699=PLANE('',#776);
#700=PLANE('',#780);
#701=PLANE('',#784);
#702=PLANE('',#788);
#703=PLANE('',#792);
#704=PLANE('',#799);
#705=PLANE('',#803);
#706=PLANE('',#804);
#707=PLANE('',#805);
#708=PLANE('',#809);
#709=PLANE('',#816);
#710=PLANE('',#820);
#711=PLANE('',#824);
#712=PLANE('',#828);
#713=PLANE('',#832);
#714=PLANE('',#833);
#715=PLANE('',#834);
#716=PLANE('',#836);
#717=PLANE('',#838);
#718=ADVANCED_FACE('',(#656,#657),#696,.F.);
#719=ADVANCED_FACE('',(#658,#659),#697,.F.);
#720=ADVANCED_FACE('',(#660),#698,.F.);
#721=ADVANCED_FACE('',(#661),#699,.F.);
#722=ADVANCED_FACE('',(#662),#20,.T.);
#723=ADVANCED_FACE('',(#663),#700,.F.);
#724=ADVANCED_FACE('',(#664),#21,.T.);
#725=ADVANCED_FACE('',(#665),#701,.F.);
#726=ADVANCED_FACE('',(#666),#22,.F.);
#727=ADVANCED_FACE('',(#667),#702,.F.);
#728=ADVANCED_FACE('',(#668),#23,.T.);
#729=ADVANCED_FACE('',(#669),#703,.F.);
#730=ADVANCED_FACE('',(#670),#24,.T.);
#731=ADVANCED_FACE('',(#671),#25,.T.);
#732=ADVANCED_FACE('',(#672),#704,.F.);
#733=ADVANCED_FACE('',(#673),#26,.T.);
#734=ADVANCED_FACE('',(#674),#705,.F.);
#735=ADVANCED_FACE('',(#675),#706,.F.);
#736=ADVANCED_FACE('',(#676),#707,.F.);
#737=ADVANCED_FACE('',(#677),#27,.F.);
#738=ADVANCED_FACE('',(#678),#708,.F.);
#739=ADVANCED_FACE('',(#679),#28,.F.);
#740=ADVANCED_FACE('',(#680),#29,.F.);
#741=ADVANCED_FACE('',(#681),#709,.F.);
#742=ADVANCED_FACE('',(#682),#30,.F.);
#743=ADVANCED_FACE('',(#683),#710,.F.);
#744=ADVANCED_FACE('',(#684),#31,.T.);
#745=ADVANCED_FACE('',(#685),#711,.F.);
#746=ADVANCED_FACE('',(#686),#32,.F.);
#747=ADVANCED_FACE('',(#687),#712,.F.);
#748=ADVANCED_FACE('',(#688),#33,.F.);
#749=ADVANCED_FACE('',(#689),#713,.F.);
#750=ADVANCED_FACE('',(#690),#714,.T.);
#751=ADVANCED_FACE('',(#691),#715,.F.);
#752=ADVANCED_FACE('',(#692),#34,.F.);
#753=ADVANCED_FACE('',(#693),#716,.T.);
#754=ADVANCED_FACE('',(#694),#35,.F.);
#755=ADVANCED_FACE('',(#695),#717,.T.);
#756=CLOSED_SHELL('',(#718,#719,#720,#721,#722,#723,#724,#725,#726,#727,
#728,#729,#730,#731,#732,#733,#734,#735,#736,#737,#738,#739,#740,#741,#742,
#743,#744,#745,#746,#747,#748,#749,#750,#751,#752,#753,#754,#755));
#757=STYLED_ITEM('',(#758),#765);
#758=PRESENTATION_STYLE_ASSIGNMENT((#759));
#759=SURFACE_STYLE_USAGE(.BOTH.,#760);
#760=SURFACE_SIDE_STYLE('',(#761));
#761=SURFACE_STYLE_FILL_AREA(#762);
#762=FILL_AREA_STYLE('',(#763));
#763=FILL_AREA_STYLE_COLOUR('',#764);
#764=COLOUR_RGB('',0.87058824300766,0.633254885673523,0.172549024224281);
#765=MANIFOLD_SOLID_BREP('',#756);
#766=SHAPE_DEFINITION_REPRESENTATION(#1282,#767);
#767=SHAPE_REPRESENTATION('33116x702513',(#768),#1277);
#768=AXIS2_PLACEMENT_3D('',#1057,#839,#840);
#769=AXIS2_PLACEMENT_3D('',#1058,#841,#842);
#770=AXIS2_PLACEMENT_3D('',#1067,#847,#848);
#771=AXIS2_PLACEMENT_3D('',#1072,#850,#851);
#772=AXIS2_PLACEMENT_3D('',#1075,#853,#854);
#773=AXIS2_PLACEMENT_3D('',#1084,#859,#860);
#774=AXIS2_PLACEMENT_3D('',#1089,#862,#863);
#775=AXIS2_PLACEMENT_3D('',#1092,#865,#866);
#776=AXIS2_PLACEMENT_3D('',#1101,#871,#872);
#777=AXIS2_PLACEMENT_3D('',#1107,#876,#877);
#778=AXIS2_PLACEMENT_3D('',#1108,#878,#879);
#779=AXIS2_PLACEMENT_3D('',#1112,#881,#882);
#780=AXIS2_PLACEMENT_3D('',#1113,#883,#884);
#781=AXIS2_PLACEMENT_3D('',#1119,#888,#889);
#782=AXIS2_PLACEMENT_3D('',#1120,#890,#891);
#783=AXIS2_PLACEMENT_3D('',#1124,#893,#894);
#784=AXIS2_PLACEMENT_3D('',#1125,#895,#896);
#785=AXIS2_PLACEMENT_3D('',#1131,#900,#901);
#786=AXIS2_PLACEMENT_3D('',#1132,#902,#903);
#787=AXIS2_PLACEMENT_3D('',#1136,#905,#906);
#788=AXIS2_PLACEMENT_3D('',#1137,#907,#908);
#789=AXIS2_PLACEMENT_3D('',#1143,#912,#913);
#790=AXIS2_PLACEMENT_3D('',#1144,#914,#915);
#791=AXIS2_PLACEMENT_3D('',#1148,#917,#918);
#792=AXIS2_PLACEMENT_3D('',#1149,#919,#920);
#793=AXIS2_PLACEMENT_3D('',#1155,#924,#925);
#794=AXIS2_PLACEMENT_3D('',#1156,#926,#927);
#795=AXIS2_PLACEMENT_3D('',#1157,#928,#929);
#796=AXIS2_PLACEMENT_3D('',#1158,#930,#931);
#797=AXIS2_PLACEMENT_3D('',#1159,#932,#933);
#798=AXIS2_PLACEMENT_3D('',#1163,#935,#936);
#799=AXIS2_PLACEMENT_3D('',#1164,#937,#938);
#800=AXIS2_PLACEMENT_3D('',#1170,#942,#943);
#801=AXIS2_PLACEMENT_3D('',#1171,#944,#945);
#802=AXIS2_PLACEMENT_3D('',#1175,#947,#948);
#803=AXIS2_PLACEMENT_3D('',#1176,#949,#950);
#804=AXIS2_PLACEMENT_3D('',#1182,#954,#955);
#805=AXIS2_PLACEMENT_3D('',#1188,#959,#960);
#806=AXIS2_PLACEMENT_3D('',#1194,#964,#965);
#807=AXIS2_PLACEMENT_3D('',#1195,#966,#967);
#808=AXIS2_PLACEMENT_3D('',#1199,#969,#970);
#809=AXIS2_PLACEMENT_3D('',#1200,#971,#972);
#810=AXIS2_PLACEMENT_3D('',#1206,#976,#977);
#811=AXIS2_PLACEMENT_3D('',#1207,#978,#979);
#812=AXIS2_PLACEMENT_3D('',#1208,#980,#981);
#813=AXIS2_PLACEMENT_3D('',#1209,#982,#983);
#814=AXIS2_PLACEMENT_3D('',#1210,#984,#985);
#815=AXIS2_PLACEMENT_3D('',#1214,#987,#988);
#816=AXIS2_PLACEMENT_3D('',#1215,#989,#990);
#817=AXIS2_PLACEMENT_3D('',#1221,#994,#995);
#818=AXIS2_PLACEMENT_3D('',#1222,#996,#997);
#819=AXIS2_PLACEMENT_3D('',#1226,#999,#1000);
#820=AXIS2_PLACEMENT_3D('',#1227,#1001,#1002);
#821=AXIS2_PLACEMENT_3D('',#1233,#1006,#1007);
#822=AXIS2_PLACEMENT_3D('',#1234,#1008,#1009);
#823=AXIS2_PLACEMENT_3D('',#1238,#1011,#1012);
#824=AXIS2_PLACEMENT_3D('',#1239,#1013,#1014);
#825=AXIS2_PLACEMENT_3D('',#1245,#1018,#1019);
#826=AXIS2_PLACEMENT_3D('',#1246,#1020,#1021);
#827=AXIS2_PLACEMENT_3D('',#1250,#1023,#1024);
#828=AXIS2_PLACEMENT_3D('',#1251,#1025,#1026);
#829=AXIS2_PLACEMENT_3D('',#1257,#1030,#1031);
#830=AXIS2_PLACEMENT_3D('',#1258,#1032,#1033);
#831=AXIS2_PLACEMENT_3D('',#1262,#1035,#1036);
#832=AXIS2_PLACEMENT_3D('',#1263,#1037,#1038);
#833=AXIS2_PLACEMENT_3D('',#1266,#1041,#1042);
#834=AXIS2_PLACEMENT_3D('',#1267,#1043,#1044);
#835=AXIS2_PLACEMENT_3D('',#1268,#1045,#1046);
#836=AXIS2_PLACEMENT_3D('',#1271,#1049,#1050);
#837=AXIS2_PLACEMENT_3D('',#1273,#1052,#1053);
#838=AXIS2_PLACEMENT_3D('',#1275,#1055,#1056);
#839=DIRECTION('',(0.,0.,1.,0.));
#840=DIRECTION('',(1.,0.,0.,0.));
#841=DIRECTION('',(-5.24618326211423E-17,1.,0.));
#842=DIRECTION('',(-1.,-5.24618326211423E-17,0.));
#843=DIRECTION('',(-1.,-5.24618326211423E-17,0.));
#844=DIRECTION('',(0.,0.,1.));
#845=DIRECTION('',(-1.,-5.24618326211423E-17,0.));
#846=DIRECTION('',(0.,0.,1.));
#847=DIRECTION('',(0.,1.,0.));
#848=DIRECTION('',(1.,0.,0.));
#849=DIRECTION('',(1.,0.,0.));
#850=DIRECTION('',(0.,1.,0.));
#851=DIRECTION('',(-1.,0.,0.));
#852=DIRECTION('',(-1.,0.,-6.7762635780336E-17));
#853=DIRECTION('',(5.24618326211423E-17,-1.,0.));
#854=DIRECTION('',(1.,5.24618326211423E-17,0.));
#855=DIRECTION('',(1.,5.24618326211423E-17,0.));
#856=DIRECTION('',(0.,0.,1.));
#857=DIRECTION('',(1.,5.24618326211423E-17,0.));
#858=DIRECTION('',(0.,0.,1.));
#859=DIRECTION('',(5.24618326211423E-17,-1.,0.));
#860=DIRECTION('',(1.,5.24618326211423E-17,0.));
#861=DIRECTION('',(-1.,-5.24618326211423E-17,-6.7762635780336E-17));
#862=DIRECTION('',(5.24618326211423E-17,-1.,0.));
#863=DIRECTION('',(1.,5.24618326211423E-17,0.));
#864=DIRECTION('',(1.,5.24618326211423E-17,0.));
#865=DIRECTION('',(-9.98254467474144E-6,0.999999999950174,0.));
#866=DIRECTION('',(-0.999999999950174,-9.98254467474144E-6,0.));
#867=DIRECTION('',(-0.999999999950174,-9.98254467474144E-6,0.));
#868=DIRECTION('',(0.,0.,1.));
#869=DIRECTION('',(-0.999999999950174,-9.98254467474144E-6,0.));
#870=DIRECTION('',(0.,0.,1.));
#871=DIRECTION('',(0.999999997931606,6.43178738583346E-5,0.));
#872=DIRECTION('',(-6.43178738583346E-5,0.999999997931606,0.));
#873=DIRECTION('',(-6.43178738583346E-5,0.999999997931606,0.));
#874=DIRECTION('',(0.,0.,1.));
#875=DIRECTION('',(-6.43178738583346E-5,0.999999997931606,0.));
#876=DIRECTION('',(0.,0.,1.));
#877=DIRECTION('',(1.,0.,0.));
#878=DIRECTION('',(0.,0.,-1.));
#879=DIRECTION('',(0.999999999950174,9.98254467474144E-6,0.));
#880=DIRECTION('',(0.,0.,1.));
#881=DIRECTION('',(0.,0.,-1.));
#882=DIRECTION('',(0.999999999950174,9.98254467474144E-6,0.));
#883=DIRECTION('',(-2.29778015733463E-16,-1.,0.));
#884=DIRECTION('',(1.,-2.29778015733463E-16,0.));
#885=DIRECTION('',(1.,-2.29778015733463E-16,0.));
#886=DIRECTION('',(0.,0.,1.));
#887=DIRECTION('',(1.,-2.29778015733463E-16,0.));
#888=DIRECTION('',(0.,0.,1.));
#889=DIRECTION('',(1.,0.,0.));
#890=DIRECTION('',(0.,0.,-1.));
#891=DIRECTION('',(-0.999999999950174,-9.98254467474144E-6,0.));
#892=DIRECTION('',(0.,0.,1.));
#893=DIRECTION('',(0.,0.,-1.));
#894=DIRECTION('',(-0.999999999950174,-9.98254467474144E-6,0.));
#895=DIRECTION('',(0.284015344704079,0.958819734868147,0.));
#896=DIRECTION('',(-0.958819734868147,0.284015344704079,0.));
#897=DIRECTION('',(-0.958819734868147,0.284015344704079,0.));
#898=DIRECTION('',(0.,0.,1.));
#899=DIRECTION('',(-0.958819734868147,0.284015344704079,0.));
#900=DIRECTION('',(0.,0.,1.));
#901=DIRECTION('',(1.,0.,0.));
#902=DIRECTION('',(0.,0.,1.));
#903=DIRECTION('',(0.999999999950174,9.98254467474144E-6,0.));
#904=DIRECTION('',(0.,0.,1.));
#905=DIRECTION('',(0.,0.,1.));
#906=DIRECTION('',(0.999999999950174,9.98254467474144E-6,0.));
#907=DIRECTION('',(6.41449864623447E-5,-0.99999999794271,0.));
#908=DIRECTION('',(0.99999999794271,6.41449864623447E-5,0.));
#909=DIRECTION('',(0.99999999794271,6.41449864623447E-5,0.));
#910=DIRECTION('',(0.,0.,1.));
#911=DIRECTION('',(0.99999999794271,6.41449864623447E-5,0.));
#912=DIRECTION('',(0.,0.,1.));
#913=DIRECTION('',(1.,0.,0.));
#914=DIRECTION('',(0.,0.,-1.));
#915=DIRECTION('',(-0.999999999950174,-9.98254467474144E-6,0.));
#916=DIRECTION('',(0.,0.,1.));
#917=DIRECTION('',(0.,0.,-1.));
#918=DIRECTION('',(-0.999999999950174,-9.98254467474144E-6,0.));
#919=DIRECTION('',(-1.,-2.06506632540598E-17,0.));
#920=DIRECTION('',(2.06506632540598E-17,-1.,0.));
#921=DIRECTION('',(2.06506632540598E-17,-1.,0.));
#922=DIRECTION('',(0.,0.,1.));
#923=DIRECTION('',(2.06506632540598E-17,-1.,0.));
#924=DIRECTION('',(0.,0.,1.));
#925=DIRECTION('',(1.,0.,0.));
#926=DIRECTION('',(0.,0.,-1.));
#927=DIRECTION('',(0.999999999950174,9.98254467474144E-6,0.));
#928=DIRECTION('',(0.,0.,-1.));
#929=DIRECTION('',(0.999999999950174,9.98254467474144E-6,0.));
#930=DIRECTION('',(0.,0.,1.));
#931=DIRECTION('',(1.,0.,0.));
#932=DIRECTION('',(0.,0.,-1.));
#933=DIRECTION('',(0.999999999950174,9.98254467474144E-6,0.));
#934=DIRECTION('',(0.,0.,1.));
#935=DIRECTION('',(0.,0.,-1.));
#936=DIRECTION('',(0.999999999950174,9.98254467474144E-6,0.));
#937=DIRECTION('',(1.,2.27806123032255E-16,0.));
#938=DIRECTION('',(-2.27806123032255E-16,1.,0.));
#939=DIRECTION('',(-2.27806123032255E-16,1.,0.));
#940=DIRECTION('',(0.,0.,1.));
#941=DIRECTION('',(-2.27806123032255E-16,1.,0.));
#942=DIRECTION('',(0.,0.,1.));
#943=DIRECTION('',(1.,0.,0.));
#944=DIRECTION('',(0.,0.,-1.));
#945=DIRECTION('',(0.999999999950174,9.98254467474144E-6,0.));
#946=DIRECTION('',(0.,0.,1.));
#947=DIRECTION('',(0.,0.,-1.));
#948=DIRECTION('',(0.999999999950174,9.98254467474144E-6,0.));
#949=DIRECTION('',(1.05845594367395E-12,-1.,0.));
#950=DIRECTION('',(1.,1.05845594367395E-12,0.));
#951=DIRECTION('',(1.,1.05845594367395E-12,0.));
#952=DIRECTION('',(0.,0.,1.));
#953=DIRECTION('',(1.,1.05845594367395E-12,0.));
#954=DIRECTION('',(-0.999999999950174,-9.98254467474144E-6,0.));
#955=DIRECTION('',(9.98254467474144E-6,-0.999999999950174,0.));
#956=DIRECTION('',(9.98254467474144E-6,-0.999999999950174,0.));
#957=DIRECTION('',(0.,0.,1.));
#958=DIRECTION('',(9.98254467474144E-6,-0.999999999950174,0.));
#959=DIRECTION('',(-1.08468037171214E-12,1.,0.));
#960=DIRECTION('',(-1.,-1.08468037171214E-12,0.));
#961=DIRECTION('',(-1.,-1.08468037171214E-12,0.));
#962=DIRECTION('',(0.,0.,1.));
#963=DIRECTION('',(-1.,-1.08468037171214E-12,0.));
#964=DIRECTION('',(0.,0.,1.));
#965=DIRECTION('',(1.,0.,0.));
#966=DIRECTION('',(0.,0.,1.));
#967=DIRECTION('',(0.999999999950174,9.98254467474144E-6,0.));
#968=DIRECTION('',(0.,0.,1.));
#969=DIRECTION('',(0.,0.,1.));
#970=DIRECTION('',(0.999999999950174,9.98254467474144E-6,0.));
#971=DIRECTION('',(-1.,-2.27806123032255E-16,0.));
#972=DIRECTION('',(2.27806123032255E-16,-1.,0.));
#973=DIRECTION('',(2.27806123032255E-16,-1.,0.));
#974=DIRECTION('',(0.,0.,1.));
#975=DIRECTION('',(2.27806123032255E-16,-1.,0.));
#976=DIRECTION('',(0.,0.,1.));
#977=DIRECTION('',(1.,0.,0.));
#978=DIRECTION('',(0.,0.,1.));
#979=DIRECTION('',(0.999999999950174,9.98254467474144E-6,0.));
#980=DIRECTION('',(0.,0.,1.));
#981=DIRECTION('',(0.999999999950174,9.98254467474144E-6,0.));
#982=DIRECTION('',(0.,0.,1.));
#983=DIRECTION('',(1.,0.,0.));
#984=DIRECTION('',(0.,0.,1.));
#985=DIRECTION('',(-0.999999999950174,-9.98254467474144E-6,0.));
#986=DIRECTION('',(0.,0.,1.));
#987=DIRECTION('',(0.,0.,1.));
#988=DIRECTION('',(-0.999999999950174,-9.98254467474144E-6,0.));
#989=DIRECTION('',(1.,2.06506632540598E-17,0.));
#990=DIRECTION('',(-2.06506632540598E-17,1.,0.));
#991=DIRECTION('',(-2.06506632540598E-17,1.,0.));
#992=DIRECTION('',(0.,0.,1.));
#993=DIRECTION('',(-2.06506632540598E-17,1.,0.));
#994=DIRECTION('',(0.,0.,1.));
#995=DIRECTION('',(1.,0.,0.));
#996=DIRECTION('',(0.,0.,1.));
#997=DIRECTION('',(-0.999999999950174,-9.98254467474144E-6,0.));
#998=DIRECTION('',(0.,0.,1.));
#999=DIRECTION('',(0.,0.,1.));
#1000=DIRECTION('',(-0.999999999950174,-9.98254467474144E-6,0.));
#1001=DIRECTION('',(-6.41449864623692E-5,0.99999999794271,0.));
#1002=DIRECTION('',(-0.99999999794271,-6.41449864623692E-5,0.));
#1003=DIRECTION('',(-0.99999999794271,-6.41449864623692E-5,0.));
#1004=DIRECTION('',(0.,0.,1.));
#1005=DIRECTION('',(-0.99999999794271,-6.41449864623692E-5,0.));
#1006=DIRECTION('',(0.,0.,1.));
#1007=DIRECTION('',(1.,0.,0.));
#1008=DIRECTION('',(0.,0.,-1.));
#1009=DIRECTION('',(0.999999999950175,9.98254467474144E-6,0.));
#1010=DIRECTION('',(0.,0.,1.));
#1011=DIRECTION('',(0.,0.,-1.));
#1012=DIRECTION('',(0.999999999950175,9.98254467474144E-6,0.));
#1013=DIRECTION('',(-0.284015344704079,-0.958819734868147,0.));
#1014=DIRECTION('',(0.958819734868147,-0.284015344704079,0.));
#1015=DIRECTION('',(0.958819734868147,-0.284015344704079,0.));
#1016=DIRECTION('',(0.,0.,1.));
#1017=DIRECTION('',(0.958819734868147,-0.284015344704079,0.));
#1018=DIRECTION('',(0.,0.,1.));
#1019=DIRECTION('',(1.,0.,0.));
#1020=DIRECTION('',(0.,0.,1.));
#1021=DIRECTION('',(-0.999999999950174,-9.98254467474144E-6,0.));
#1022=DIRECTION('',(0.,0.,1.));
#1023=DIRECTION('',(0.,0.,1.));
#1024=DIRECTION('',(-0.999999999950174,-9.98254467474144E-6,0.));
#1025=DIRECTION('',(2.29778015733463E-16,1.,0.));
#1026=DIRECTION('',(-1.,2.29778015733463E-16,0.));
#1027=DIRECTION('',(-1.,2.29778015733463E-16,0.));
#1028=DIRECTION('',(0.,0.,1.));
#1029=DIRECTION('',(-1.,2.29778015733463E-16,0.));
#1030=DIRECTION('',(0.,0.,1.));
#1031=DIRECTION('',(1.,0.,0.));
#1032=DIRECTION('',(0.,0.,1.));
#1033=DIRECTION('',(0.999999999950174,9.98254467474144E-6,0.));
#1034=DIRECTION('',(0.,0.,1.));
#1035=DIRECTION('',(0.,0.,1.));
#1036=DIRECTION('',(0.999999999950174,9.98254467474144E-6,0.));
#1037=DIRECTION('',(-0.999999997931606,-6.43178738584852E-5,0.));
#1038=DIRECTION('',(6.43178738584852E-5,-0.999999997931606,0.));
#1039=DIRECTION('',(6.43178738584852E-5,-0.999999997931606,0.));
#1040=DIRECTION('',(6.43178738584852E-5,-0.999999997931606,0.));
#1041=DIRECTION('',(0.,0.,-1.));
#1042=DIRECTION('',(-1.,0.,0.));
#1043=DIRECTION('',(0.,0.,-1.));
#1044=DIRECTION('',(-1.,0.,0.));
#1045=DIRECTION('',(0.,-1.,0.));
#1046=DIRECTION('',(0.,0.,-1.));
#1047=DIRECTION('',(0.,-1.,0.));
#1048=DIRECTION('',(0.,-1.,0.));
#1049=DIRECTION('',(0.,0.,-1.));
#1050=DIRECTION('',(-1.,0.,0.));
#1051=DIRECTION('',(0.,-1.,0.));
#1052=DIRECTION('',(0.,-1.,0.));
#1053=DIRECTION('',(0.,0.,-1.));
#1054=DIRECTION('',(0.,-1.,0.));
#1055=DIRECTION('',(-6.7762635780336E-17,0.,1.));
#1056=DIRECTION('',(1.,0.,6.7762635780336E-17));
#1057=CARTESIAN_POINT('',(0.,0.,0.));
#1058=CARTESIAN_POINT('',(-0.5,0.,-1.25));
#1059=CARTESIAN_POINT('',(-0.5,0.,1.25));
#1060=CARTESIAN_POINT('',(-0.5,3.25260651745651E-16,1.25));
#1061=CARTESIAN_POINT('',(-6.50000000001,-3.14770995727379E-16,1.25));
#1062=CARTESIAN_POINT('',(-6.50000000001,-3.14770995727379E-16,-1.25));
#1063=CARTESIAN_POINT('',(-6.50000000001,-3.14770995727379E-16,-1.25));
#1064=CARTESIAN_POINT('',(-0.5,0.,-1.25));
#1065=CARTESIAN_POINT('',(-0.5,3.25260651745651E-16,-1.25));
#1066=CARTESIAN_POINT('',(-0.5,3.25260651745651E-16,-1.25));
#1067=CARTESIAN_POINT('',(-3.9,0.,-2.49998047437139E-12));
#1068=CARTESIAN_POINT('',(-3.9,0.,-0.399999999995));
#1069=CARTESIAN_POINT('',(-3.9,-1.78370230911884E-16,0.39999999999));
#1070=CARTESIAN_POINT('',(-3.9,0.,0.39999999999));
#1071=CARTESIAN_POINT('',(-3.1,0.,0.39999999999));
#1072=CARTESIAN_POINT('',(-3.1,0.,-2.49998047437139E-12));
#1073=CARTESIAN_POINT('',(-3.09999999999991,0.,-0.399999999995));
#1074=CARTESIAN_POINT('',(-3.09999999999991,0.,-0.399999999995));
#1075=CARTESIAN_POINT('',(-0.5,0.15,-1.25));
#1076=CARTESIAN_POINT('',(-0.5,0.15,1.25));
#1077=CARTESIAN_POINT('',(-6.50000000001002,0.15,1.25));
#1078=CARTESIAN_POINT('',(-0.5,0.15,1.25));
#1079=CARTESIAN_POINT('',(-0.5,0.15,-1.25));
#1080=CARTESIAN_POINT('',(-0.5,0.15,-1.25));
#1081=CARTESIAN_POINT('',(-0.5,0.15,-1.25));
#1082=CARTESIAN_POINT('',(-6.50000000001002,0.15,-1.25));
#1083=CARTESIAN_POINT('',(-6.50000000001002,0.15,-1.25));
#1084=CARTESIAN_POINT('',(-3.9,0.150000000000001,-2.49998047437139E-12));
#1085=CARTESIAN_POINT('',(-3.9,0.15,-0.399999999995));
#1086=CARTESIAN_POINT('',(-3.9,0.149999999999999,0.39999999999));
#1087=CARTESIAN_POINT('',(-0.5,0.15,-0.399999999995));
#1088=CARTESIAN_POINT('',(-3.09999999999991,0.149999999999999,-0.399999999995));
#1089=CARTESIAN_POINT('',(-3.1,0.150000000000001,-2.49998047437139E-12));
#1090=CARTESIAN_POINT('',(-3.1,0.150000000000001,0.39999999999));
#1091=CARTESIAN_POINT('',(-0.5,0.15,0.39999999999));
#1092=CARTESIAN_POINT('',(-6.84999999978605,10.1000014973817,-1.25));
#1093=CARTESIAN_POINT('',(-6.84999999978605,10.1000014973817,1.25));
#1094=CARTESIAN_POINT('',(-6.84999999978605,10.1000014973817,1.25));
#1095=CARTESIAN_POINT('',(-7.,10.1,1.25));
#1096=CARTESIAN_POINT('',(-7.,10.1,-1.25));
#1097=CARTESIAN_POINT('',(-7.,10.1,-1.25));
#1098=CARTESIAN_POINT('',(-6.84999999978605,10.1000014973817,-1.25));
#1099=CARTESIAN_POINT('',(-6.84999999978605,10.1000014973817,-1.25));
#1100=CARTESIAN_POINT('',(-6.84999999978605,10.1000014973817,-1.25));
#1101=CARTESIAN_POINT('',(-7.,10.1,-1.25));
#1102=CARTESIAN_POINT('',(-7.,10.1,1.25));
#1103=CARTESIAN_POINT('',(-7.00015436290141,12.5000000595135,1.25));
#1104=CARTESIAN_POINT('',(-7.00015436290141,12.5000000595135,-1.25));
#1105=CARTESIAN_POINT('',(-7.00015436290141,12.5000000595135,-1.25));
#1106=CARTESIAN_POINT('',(-7.,10.1,-1.25));
#1107=CARTESIAN_POINT('',(-6.50000000001,12.4998456132623,-1.25));
#1108=CARTESIAN_POINT('',(-6.50000000001,12.4998456132623,1.25));
#1109=CARTESIAN_POINT('',(-6.50000000001,13.,1.25));
#1110=CARTESIAN_POINT('',(-6.50000000001,13.,-1.25));
#1111=CARTESIAN_POINT('',(-6.50000000001,13.,-1.25));
#1112=CARTESIAN_POINT('',(-6.50000000001,12.4998456132623,-1.25));
#1113=CARTESIAN_POINT('',(-6.50000000001,13.,-1.25));
#1114=CARTESIAN_POINT('',(-6.50000000001,13.,1.25));
#1115=CARTESIAN_POINT('',(-1.92349727118907,13.,1.25));
#1116=CARTESIAN_POINT('',(-1.92349727118907,13.,-1.25));
#1117=CARTESIAN_POINT('',(-1.92349727118907,13.,-1.25));
#1118=CARTESIAN_POINT('',(-6.50000000001,13.,-1.25));
#1119=CARTESIAN_POINT('',(-1.92349727118906,11.0765027288213,-1.25));
#1120=CARTESIAN_POINT('',(-1.92349727118906,11.0765027288213,1.25));
#1121=CARTESIAN_POINT('',(-2.46980001168608,9.23221558524597,1.25));
#1122=CARTESIAN_POINT('',(-2.46980001168608,9.23221558524597,-1.25));
#1123=CARTESIAN_POINT('',(-2.46980001168608,9.23221558524597,-1.25));
#1124=CARTESIAN_POINT('',(-1.92349727118906,11.0765027288213,-1.25));
#1125=CARTESIAN_POINT('',(-2.46980001168608,9.23221558524597,-1.25));
#1126=CARTESIAN_POINT('',(-2.46980001168608,9.23221558524597,1.25));
#1127=CARTESIAN_POINT('',(-4.28196931060183,9.76900458674111,1.25));
#1128=CARTESIAN_POINT('',(-4.28196931060183,9.76900458674111,-1.25));
#1129=CARTESIAN_POINT('',(-4.28196931060183,9.76900458674111,-1.25));
#1130=CARTESIAN_POINT('',(-2.46980001168608,9.23221558524597,-1.25));
#1131=CARTESIAN_POINT('',(-4.85012829947569,7.85124127004729,-1.25));
#1132=CARTESIAN_POINT('',(-4.85012829947569,7.85124127004729,1.25));
#1133=CARTESIAN_POINT('',(-4.84999999954825,5.85108608630934,1.25));
#1134=CARTESIAN_POINT('',(-4.84999999954825,5.85108608630934,-1.25));
#1135=CARTESIAN_POINT('',(-4.84999999954825,5.85108608630934,-1.25));
#1136=CARTESIAN_POINT('',(-4.85012829947569,7.85124127004729,-1.25));
#1137=CARTESIAN_POINT('',(-4.84999999954825,5.85108608630934,-1.25));
#1138=CARTESIAN_POINT('',(-4.84999999954825,5.85108608630934,1.25));
#1139=CARTESIAN_POINT('',(-0.5,5.851365117001,1.25));
#1140=CARTESIAN_POINT('',(-0.5,5.851365117001,-1.25));
#1141=CARTESIAN_POINT('',(-0.5,5.851365117001,-1.25));
#1142=CARTESIAN_POINT('',(-4.84999999954825,5.85108608630934,-1.25));
#1143=CARTESIAN_POINT('',(-0.5,5.351365117001,-1.25));
#1144=CARTESIAN_POINT('',(-0.5,5.351365117001,1.25));
#1145=CARTESIAN_POINT('',(-5.42101086242752E-16,5.351365117001,1.25));
#1146=CARTESIAN_POINT('',(-5.42101086242752E-16,5.351365117001,-1.25));
#1147=CARTESIAN_POINT('',(-5.42101086242752E-16,5.351365117001,-1.25));
#1148=CARTESIAN_POINT('',(-0.5,5.351365117001,-1.25));
#1149=CARTESIAN_POINT('',(-4.33680868994202E-16,5.351365117001,-1.25));
#1150=CARTESIAN_POINT('',(-4.33680868994202E-16,5.351365117001,1.25));
#1151=CARTESIAN_POINT('',(-3.33496961640522E-16,0.5,1.25));
#1152=CARTESIAN_POINT('',(-3.33496961640522E-16,0.5,-1.25));
#1153=CARTESIAN_POINT('',(-3.33496961640522E-16,0.5,-1.25));
#1154=CARTESIAN_POINT('',(-4.33680868994202E-16,5.351365117001,-1.25));
#1155=CARTESIAN_POINT('',(-0.500000000000002,0.500000000000001,-1.25));
#1156=CARTESIAN_POINT('',(-0.500000000000002,0.500000000000001,1.25));
#1157=CARTESIAN_POINT('',(-0.500000000000002,0.500000000000001,-1.25));
#1158=CARTESIAN_POINT('',(-6.50000000001002,0.499999999989976,-1.25));
#1159=CARTESIAN_POINT('',(-6.50000000001002,0.499999999989976,1.25));
#1160=CARTESIAN_POINT('',(-7.,0.499999999990001,1.25));
#1161=CARTESIAN_POINT('',(-7.,0.499999999990001,-1.25));
#1162=CARTESIAN_POINT('',(-7.,0.499999999990001,-1.25));
#1163=CARTESIAN_POINT('',(-6.50000000001002,0.499999999989976,-1.25));
#1164=CARTESIAN_POINT('',(-7.,0.499999999990002,-1.25));
#1165=CARTESIAN_POINT('',(-7.,0.499999999990002,1.25));
#1166=CARTESIAN_POINT('',(-7.,5.19999999999495,1.25));
#1167=CARTESIAN_POINT('',(-7.,5.19999999999495,-1.25));
#1168=CARTESIAN_POINT('',(-7.,5.19999999999495,-1.25));
#1169=CARTESIAN_POINT('',(-7.,0.499999999990002,-1.25));
#1170=CARTESIAN_POINT('',(-6.49999999999828,5.19999999999495,-1.25));
#1171=CARTESIAN_POINT('',(-6.49999999999828,5.19999999999495,1.25));
#1172=CARTESIAN_POINT('',(-6.50000000000335,5.69999999999667,1.25));
#1173=CARTESIAN_POINT('',(-6.50000000000335,5.69999999999667,-1.25));
#1174=CARTESIAN_POINT('',(-6.50000000000335,5.69999999999667,-1.25));
#1175=CARTESIAN_POINT('',(-6.49999999999828,5.19999999999495,-1.25));
#1176=CARTESIAN_POINT('',(-6.50000000000335,5.69999999999667,-1.25));
#1177=CARTESIAN_POINT('',(-6.50000000000335,5.69999999999667,1.25));
#1178=CARTESIAN_POINT('',(-3.43,5.69999999999992,1.25));
#1179=CARTESIAN_POINT('',(-3.43,5.69999999999992,-1.25));
#1180=CARTESIAN_POINT('',(-3.43,5.69999999999992,-1.25));
#1181=CARTESIAN_POINT('',(-6.50000000000335,5.69999999999667,-1.25));
#1182=CARTESIAN_POINT('',(-3.4299985026183,5.55,-1.25));
#1183=CARTESIAN_POINT('',(-3.4299985026183,5.55,1.25));
#1184=CARTESIAN_POINT('',(-3.4299985026183,5.55,1.25));
#1185=CARTESIAN_POINT('',(-3.4299985026183,5.55,-1.25));
#1186=CARTESIAN_POINT('',(-3.4299985026183,5.55,-1.25));
#1187=CARTESIAN_POINT('',(-3.4299985026183,5.55,-1.25));
#1188=CARTESIAN_POINT('',(-6.49999999999866,5.54999999999667,-1.25));
#1189=CARTESIAN_POINT('',(-6.49999999999866,5.54999999999667,1.25));
#1190=CARTESIAN_POINT('',(-6.49999999999866,5.54999999999667,1.25));
#1191=CARTESIAN_POINT('',(-6.49999999999866,5.54999999999667,-1.25));
#1192=CARTESIAN_POINT('',(-6.49999999999866,5.54999999999667,-1.25));
#1193=CARTESIAN_POINT('',(-6.49999999999866,5.54999999999667,-1.25));
#1194=CARTESIAN_POINT('',(-6.49999999999828,5.19999999999495,-1.25));
#1195=CARTESIAN_POINT('',(-6.49999999999828,5.19999999999495,1.25));
#1196=CARTESIAN_POINT('',(-6.85,5.19999999999495,1.25));
#1197=CARTESIAN_POINT('',(-6.85,5.19999999999495,-1.25));
#1198=CARTESIAN_POINT('',(-6.85,5.19999999999495,-1.25));
#1199=CARTESIAN_POINT('',(-6.49999999999828,5.19999999999495,-1.25));
#1200=CARTESIAN_POINT('',(-6.85,0.499999999990002,-1.25));
#1201=CARTESIAN_POINT('',(-6.85,0.499999999990002,1.25));
#1202=CARTESIAN_POINT('',(-6.85,0.499999999990002,1.25));
#1203=CARTESIAN_POINT('',(-6.85,0.499999999990002,-1.25));
#1204=CARTESIAN_POINT('',(-6.85,0.499999999990002,-1.25));
#1205=CARTESIAN_POINT('',(-6.85,0.499999999990002,-1.25));
#1206=CARTESIAN_POINT('',(-6.50000000001002,0.499999999989976,-1.25));
#1207=CARTESIAN_POINT('',(-6.50000000001002,0.499999999989976,1.25));
#1208=CARTESIAN_POINT('',(-6.50000000001002,0.499999999989976,-1.25));
#1209=CARTESIAN_POINT('',(-0.500000000000002,0.500000000000001,-1.25));
#1210=CARTESIAN_POINT('',(-0.500000000000002,0.500000000000001,1.25));
#1211=CARTESIAN_POINT('',(-0.15000000001744,0.500003493890637,1.25));
#1212=CARTESIAN_POINT('',(-0.15000000001744,0.500003493890637,-1.25));
#1213=CARTESIAN_POINT('',(-0.15000000001744,0.500003493890637,-1.25));
#1214=CARTESIAN_POINT('',(-0.500000000000002,0.500000000000001,-1.25));
#1215=CARTESIAN_POINT('',(-0.15,5.351365117001,-1.25));
#1216=CARTESIAN_POINT('',(-0.15,5.351365117001,1.25));
#1217=CARTESIAN_POINT('',(-0.15,5.351365117001,1.25));
#1218=CARTESIAN_POINT('',(-0.15,5.351365117001,-1.25));
#1219=CARTESIAN_POINT('',(-0.15,5.351365117001,-1.25));
#1220=CARTESIAN_POINT('',(-0.15,5.351365117001,-1.25));
#1221=CARTESIAN_POINT('',(-0.5,5.351365117001,-1.25));
#1222=CARTESIAN_POINT('',(-0.5,5.351365117001,1.25));
#1223=CARTESIAN_POINT('',(-0.500022450745262,5.70136511628095,1.25));
#1224=CARTESIAN_POINT('',(-0.500022450745262,5.70136511628095,-1.25));
#1225=CARTESIAN_POINT('',(-0.500022450745262,5.70136511628095,-1.25));
#1226=CARTESIAN_POINT('',(-0.5,5.351365117001,-1.25));
#1227=CARTESIAN_POINT('',(-4.84999037780028,5.70108608661794,-1.25));
#1228=CARTESIAN_POINT('',(-4.84999037780028,5.70108608661794,1.25));
#1229=CARTESIAN_POINT('',(-4.84999037780028,5.70108608661794,1.25));
#1230=CARTESIAN_POINT('',(-4.84999037780028,5.70108608661794,-1.25));
#1231=CARTESIAN_POINT('',(-4.84999037780028,5.70108608661794,-1.25));
#1232=CARTESIAN_POINT('',(-4.84999037780028,5.70108608661794,-1.25));
#1233=CARTESIAN_POINT('',(-4.85012829947569,7.85124127004729,-1.25));
#1234=CARTESIAN_POINT('',(-4.85012829947569,7.85124127004729,1.25));
#1235=CARTESIAN_POINT('',(-4.2394512326304,9.91285249718973,1.25));
#1236=CARTESIAN_POINT('',(-4.2394512326304,9.91285249718973,-1.25));
#1237=CARTESIAN_POINT('',(-4.2394512326304,9.91285249718973,-1.25));
#1238=CARTESIAN_POINT('',(-4.85012829947569,7.85124127004729,-1.25));
#1239=CARTESIAN_POINT('',(-2.42719770999463,9.37603854548039,-1.25));
#1240=CARTESIAN_POINT('',(-2.42719770999463,9.37603854548039,1.25));
#1241=CARTESIAN_POINT('',(-2.42719770999463,9.37603854548039,1.25));
#1242=CARTESIAN_POINT('',(-2.42719770999463,9.37603854548039,-1.25));
#1243=CARTESIAN_POINT('',(-2.42719770999463,9.37603854548039,-1.25));
#1244=CARTESIAN_POINT('',(-2.42719770999463,9.37603854548039,-1.25));
#1245=CARTESIAN_POINT('',(-1.92349727118906,11.0765027288213,-1.25));
#1246=CARTESIAN_POINT('',(-1.92349727118906,11.0765027288213,1.25));
#1247=CARTESIAN_POINT('',(-1.92349727118906,12.85,1.25));
#1248=CARTESIAN_POINT('',(-1.92349727118906,12.85,-1.25));
#1249=CARTESIAN_POINT('',(-1.92349727118906,12.85,-1.25));
#1250=CARTESIAN_POINT('',(-1.92349727118906,11.0765027288213,-1.25));
#1251=CARTESIAN_POINT('',(-6.50000000001,12.85,-1.25));
#1252=CARTESIAN_POINT('',(-6.50000000001,12.85,1.25));
#1253=CARTESIAN_POINT('',(-6.50000000001,12.85,1.25));
#1254=CARTESIAN_POINT('',(-6.50000000001,12.85,-1.25));
#1255=CARTESIAN_POINT('',(-6.50000000001,12.85,-1.25));
#1256=CARTESIAN_POINT('',(-6.50000000001,12.85,-1.25));
#1257=CARTESIAN_POINT('',(-6.50000000001,12.4998456132623,-1.25));
#1258=CARTESIAN_POINT('',(-6.50000000001,12.4998456132623,1.25));
#1259=CARTESIAN_POINT('',(-6.85015438602343,12.4998230920766,1.25));
#1260=CARTESIAN_POINT('',(-6.85015438602343,12.4998230920766,-1.25));
#1261=CARTESIAN_POINT('',(-6.85015438602343,12.4998230920766,-1.25));
#1262=CARTESIAN_POINT('',(-6.50000000001,12.4998456132623,-1.25));
#1263=CARTESIAN_POINT('',(-6.84999999978605,10.1000014973817,-1.25));
#1264=CARTESIAN_POINT('',(-6.84999999978605,10.1000014973817,1.25));
#1265=CARTESIAN_POINT('',(-6.84999999978605,10.1000014973817,-1.25));
#1266=CARTESIAN_POINT('',(-6.50000000001,12.4998456132623,-1.25));
#1267=CARTESIAN_POINT('',(-6.50000000001,12.4998456132623,1.25));
#1268=CARTESIAN_POINT('',(-3.9,14.9751116490985,-2.49998047437139E-12));
#1269=CARTESIAN_POINT('',(-3.9,14.9751116490985,0.39999999999));
#1270=CARTESIAN_POINT('',(-3.9,14.9751116490985,-0.399999999995));
#1271=CARTESIAN_POINT('',(-3.9,14.9751116490985,0.39999999999));
#1272=CARTESIAN_POINT('',(-3.1,14.9751116490985,0.39999999999));
#1273=CARTESIAN_POINT('',(-3.1,14.9751116490985,-2.49998047437139E-12));
#1274=CARTESIAN_POINT('',(-3.09999999999991,14.9751116490985,-0.399999999995));
#1275=CARTESIAN_POINT('',(-3.09999999999991,14.9751116490985,-0.399999999995));
#1276=MECHANICAL_DESIGN_GEOMETRIC_PRESENTATION_REPRESENTATION('',(#757),
#1277);
#1277=(
GEOMETRIC_REPRESENTATION_CONTEXT(3)
GLOBAL_UNCERTAINTY_ASSIGNED_CONTEXT((#1278))
GLOBAL_UNIT_ASSIGNED_CONTEXT((#1281,#1280,#1279))
REPRESENTATION_CONTEXT('33116x702513','TOP_LEVEL_ASSEMBLY_PART')
);
#1278=UNCERTAINTY_MEASURE_WITH_UNIT(LENGTH_MEASURE(0.005),#1281,
'DISTANCE_ACCURACY_VALUE','Maximum Tolerance applied to model');
#1279=(
NAMED_UNIT(*)
SI_UNIT($,.STERADIAN.)
SOLID_ANGLE_UNIT()
);
#1280=(
NAMED_UNIT(*)
PLANE_ANGLE_UNIT()
SI_UNIT($,.RADIAN.)
);
#1281=(
LENGTH_UNIT()
NAMED_UNIT(*)
SI_UNIT(.MILLI.,.METRE.)
);
#1282=PRODUCT_DEFINITION_SHAPE('','',#1283);
#1283=PRODUCT_DEFINITION('','',#1285,#1284);
#1284=PRODUCT_DEFINITION_CONTEXT('',#1291,'design');
#1285=PRODUCT_DEFINITION_FORMATION_WITH_SPECIFIED_SOURCE('','',#1287,
 .NOT_KNOWN.);
#1286=PRODUCT_RELATED_PRODUCT_CATEGORY('','',(#1287));
#1287=PRODUCT('33116x702513','33116x702513','33116x702513',(#1289));
#1288=PRODUCT_CATEGORY('','');
#1289=PRODUCT_CONTEXT('',#1291,'mechanical');
#1290=APPLICATION_PROTOCOL_DEFINITION('international standard',
'automotive_design',2010,#1291);
#1291=APPLICATION_CONTEXT(
'core data for automotive mechanical design processes');
ENDSEC;
END-ISO-10303-21;
